<svg xmlns="http://www.w3.org/2000/svg" viewBox="0 0 200 200" fill="none" aria-hidden="true">
  <g stroke="#ffffff" stroke-opacity="0.72" stroke-width="2.2" stroke-linecap="round" stroke-linejoin="round">
    <line x1="52" y1="158" x2="148" y2="158"/>
    <circle cx="100" cy="102" r="52"/>
    <path d="M78 88c8 14 18 22 22 22s14-8 22-22"/>
    <path d="M82 98c6 10 14 16 18 16s12-6 18-16"/>
    <path d="M86 108c4 7 10 11 14 11s10-4 14-11"/>
    <path d="M90 118c3 5 7 8 10 8s7-3 10-8"/>
    <path d="M100 50c-2-10 4-18 12-22"/>
    <path d="M108 36c10-2 16 2 18 10"/>
    <path d="M94 38c-8-1-14 3-16 10"/>
  </g>
</svg>
